<svg xmlns="http://www.w3.org/2000/svg" width="900" height="720" viewBox="0 0 900 720" role="img" aria-label="다화자 TTS 파이프라인: 대본을 화자별 세그먼트로 나눠 TTS를 요청하고 원래 순서로 병합한다">
<defs>
<marker id="arrow" viewBox="0 0 10 10" refX="9" refY="5" markerWidth="6" markerHeight="6" orient="auto-start-reverse"><path d="M 0 1 L 9 5 L 0 9 z" fill="#6b7684"/></marker>
</defs>
<style>text{font-family:"Noto Sans KR","Apple SD Gothic Neo","Malgun Gothic",system-ui,sans-serif}</style>
<rect width="900" height="720" fill="#ffffff"/>
<text x="24" y="34" font-size="19.38" fill="#1f2933" text-anchor="start" font-weight="700">다화자 TTS 합성 파이프라인</text>
<text x="24" y="54" font-size="13.68" fill="#6b7684" text-anchor="start" font-weight="400">대사 순서는 유지한 채 화자별로 나눠 합성하고, 다시 원래 순서로 병합한다.</text>
<rect x="24" y="72" width="286" height="154" rx="10" fill="#f7f9fa" stroke="#d5dbe1" stroke-width="1" />
<text x="40" y="98" font-size="14.82" fill="#1f2933" text-anchor="start" font-weight="700">① 다화자 대본</text>
<circle cx="44" cy="124" r="4" fill="#3b6fd4"/>
<text x="56" y="128" font-size="12.54" fill="#2b56a8" text-anchor="start" font-weight="700">A</text>
<text x="70" y="128" font-size="13.68" fill="#1f2933" text-anchor="start" font-weight="400">안녕하세요, 오늘 주제는—</text>
<circle cx="44" cy="150" r="4" fill="#c96a24"/>
<text x="56" y="154" font-size="12.54" fill="#9c5017" text-anchor="start" font-weight="700">B</text>
<text x="70" y="154" font-size="13.68" fill="#1f2933" text-anchor="start" font-weight="400">네, 저도 궁금했어요.</text>
<circle cx="44" cy="176" r="4" fill="#3b6fd4"/>
<text x="56" y="180" font-size="12.54" fill="#2b56a8" text-anchor="start" font-weight="700">A</text>
<text x="70" y="180" font-size="13.68" fill="#1f2933" text-anchor="start" font-weight="400">먼저 배경부터 볼까요?</text>
<circle cx="44" cy="202" r="4" fill="#3f8f5e"/>
<text x="56" y="206" font-size="12.54" fill="#2c6a44" text-anchor="start" font-weight="700">C</text>
<text x="70" y="206" font-size="13.68" fill="#1f2933" text-anchor="start" font-weight="400">자료는 제가 준비했습니다.</text>
<path d="M 318 149 H 348" fill="none" stroke="#6b7684" stroke-width="1.6" stroke-linecap="round" stroke-linejoin="round" marker-end="url(#arrow)"/>
<rect x="356" y="72" width="520" height="154" rx="10" fill="#f7f9fa" stroke="#d5dbe1" stroke-width="1" />
<text x="372" y="98" font-size="14.82" fill="#1f2933" text-anchor="start" font-weight="700">② 세그먼트 분할 + 화자 태깅</text>
<rect x="372.0" y="123.0" width="88" height="30" rx="15.0" fill="#e8f0fe" stroke="#3b6fd4" stroke-width="1" />
<text x="416.0" y="142.14" font-size="13.11" fill="#2b56a8" text-anchor="middle" font-weight="600">S1 · A</text>
<rect x="472.0" y="123.0" width="88" height="30" rx="15.0" fill="#fdf0e4" stroke="#c96a24" stroke-width="1" />
<text x="516.0" y="142.14" font-size="13.11" fill="#9c5017" text-anchor="middle" font-weight="600">S2 · B</text>
<rect x="572.0" y="123.0" width="88" height="30" rx="15.0" fill="#e8f0fe" stroke="#3b6fd4" stroke-width="1" />
<text x="616.0" y="142.14" font-size="13.11" fill="#2b56a8" text-anchor="middle" font-weight="600">S3 · A</text>
<rect x="672.0" y="123.0" width="88" height="30" rx="15.0" fill="#e7f5ec" stroke="#3f8f5e" stroke-width="1" />
<text x="716.0" y="142.14" font-size="13.11" fill="#2c6a44" text-anchor="middle" font-weight="600">S4 · C</text>
<rect x="772.0" y="123.0" width="88" height="30" rx="15.0" fill="#fdf0e4" stroke="#c96a24" stroke-width="1" />
<text x="816.0" y="142.14" font-size="13.11" fill="#9c5017" text-anchor="middle" font-weight="600">S5 · B</text>
<rect x="372.0" y="167.0" width="88" height="30" rx="15.0" fill="#e8f0fe" stroke="#3b6fd4" stroke-width="1" />
<text x="416.0" y="186.14" font-size="13.11" fill="#2b56a8" text-anchor="middle" font-weight="600">S6 · A</text>
<rect x="472.0" y="167.0" width="88" height="30" rx="15.0" fill="#e7f5ec" stroke="#3f8f5e" stroke-width="1" />
<text x="516.0" y="186.14" font-size="13.11" fill="#2c6a44" text-anchor="middle" font-weight="600">S7 · C</text>
<rect x="572.0" y="167.0" width="88" height="30" rx="15.0" fill="#fdf0e4" stroke="#c96a24" stroke-width="1" />
<text x="616.0" y="186.14" font-size="13.11" fill="#9c5017" text-anchor="middle" font-weight="600">S8 · B</text>
<rect x="672.0" y="167.0" width="88" height="30" rx="15.0" fill="#e8f0fe" stroke="#3b6fd4" stroke-width="1" />
<text x="716.0" y="186.14" font-size="13.11" fill="#2b56a8" text-anchor="middle" font-weight="600">S9 · A</text>
<rect x="772.0" y="167.0" width="88" height="30" rx="15.0" fill="#e7f5ec" stroke="#3f8f5e" stroke-width="1" />
<text x="816.0" y="186.14" font-size="13.11" fill="#2c6a44" text-anchor="middle" font-weight="600">S10 · C</text>
<text x="616.0" y="212" font-size="13.11" fill="#6b7684" text-anchor="middle" font-weight="400">대사 순서(S1→S10)는 그대로 두고 화자만 태깅한다</text>
<path d="M 616 232 V 244 H 325 V 258" fill="none" stroke="#6b7684" stroke-width="1.6" stroke-linecap="round" stroke-linejoin="round" marker-end="url(#arrow)"/>
<rect x="250" y="262" width="150" height="46" rx="23" fill="#ffffff" stroke="#d5dbe1" stroke-width="1" />
<text x="325" y="283" font-size="14.82" fill="#1f2933" text-anchor="middle" font-weight="700">작업 큐</text>
<text x="325" y="298" font-size="11.97" fill="#6b7684" text-anchor="middle" font-weight="400">잡 1건 = 대본 1개</text>
<path d="M 406 285 H 462" fill="none" stroke="#6b7684" stroke-width="1.6" stroke-linecap="round" stroke-linejoin="round" marker-end="url(#arrow)"/>
<rect x="470" y="262" width="180" height="46" rx="12" fill="#ffffff" stroke="#d5dbe1" stroke-width="1" />
<text x="560" y="283" font-size="14.82" fill="#1f2933" text-anchor="middle" font-weight="700">워커</text>
<text x="560" y="298" font-size="11.97" fill="#6b7684" text-anchor="middle" font-weight="400">잡 1개 점유 · 세그먼트 전개</text>
<text x="24" y="344" font-size="14.82" fill="#1f2933" text-anchor="start" font-weight="700">③ 화자별 fan-out</text>
<path d="M 560 310 C 560 336, 160.5 320, 160.5 360" fill="none" stroke="#6b7684" stroke-width="1.6" stroke-linecap="round" stroke-linejoin="round" marker-end="url(#arrow)"/>
<rect x="24" y="366" width="273" height="154" rx="10" fill="#ffffff" stroke="#d5dbe1" stroke-width="1" />
<path d="M 24 400 V 376 a10,10 0 0 1 10,-10 H 287 a10,10 0 0 1 10,10 V 400 Z" fill="#3b6fd4"/>
<text x="160.5" y="389" font-size="14.25" fill="#ffffff" text-anchor="middle" font-weight="700">화자 A · voice_a</text>
<rect x="40.5" y="415.0" width="54" height="26" rx="13.0" fill="#e8f0fe" stroke="#3b6fd4" stroke-width="1" />
<text x="67.5" y="432.14" font-size="13.11" fill="#2b56a8" text-anchor="middle" font-weight="600">S1</text>
<rect x="102.5" y="415.0" width="54" height="26" rx="13.0" fill="#e8f0fe" stroke="#3b6fd4" stroke-width="1" />
<text x="129.5" y="432.14" font-size="13.11" fill="#2b56a8" text-anchor="middle" font-weight="600">S3</text>
<rect x="164.5" y="415.0" width="54" height="26" rx="13.0" fill="#e8f0fe" stroke="#3b6fd4" stroke-width="1" />
<text x="191.5" y="432.14" font-size="13.11" fill="#2b56a8" text-anchor="middle" font-weight="600">S6</text>
<rect x="226.5" y="415.0" width="54" height="26" rx="13.0" fill="#e8f0fe" stroke="#3b6fd4" stroke-width="1" />
<text x="253.5" y="432.14" font-size="13.11" fill="#2b56a8" text-anchor="middle" font-weight="600">S9</text>
<path d="M 160.5 446 V 460" fill="none" stroke="#6b7684" stroke-width="1.6" stroke-linecap="round" stroke-linejoin="round" marker-end="url(#arrow)"/>
<rect x="55.5" y="464" width="210" height="30" rx="15" fill="#f7f9fa" stroke="#d5dbe1" stroke-width="1" />
<text x="160.5" y="484" font-size="13.68" fill="#1f2933" text-anchor="middle" font-weight="600">외부 TTS API 호출</text>
<text x="160.5" y="510" font-size="12.54" fill="#6b7684" text-anchor="middle" font-weight="400">→ 오디오 조각 4개 회신</text>
<path d="M 560 310 C 560 336, 449.5 320, 449.5 360" fill="none" stroke="#6b7684" stroke-width="1.6" stroke-linecap="round" stroke-linejoin="round" marker-end="url(#arrow)"/>
<rect x="313" y="366" width="273" height="154" rx="10" fill="#ffffff" stroke="#d5dbe1" stroke-width="1" />
<path d="M 313 400 V 376 a10,10 0 0 1 10,-10 H 576 a10,10 0 0 1 10,10 V 400 Z" fill="#c96a24"/>
<text x="449.5" y="389" font-size="14.25" fill="#ffffff" text-anchor="middle" font-weight="700">화자 B · voice_b</text>
<rect x="360.5" y="415.0" width="54" height="26" rx="13.0" fill="#fdf0e4" stroke="#c96a24" stroke-width="1" />
<text x="387.5" y="432.14" font-size="13.11" fill="#9c5017" text-anchor="middle" font-weight="600">S2</text>
<rect x="422.5" y="415.0" width="54" height="26" rx="13.0" fill="#fdf0e4" stroke="#c96a24" stroke-width="1" />
<text x="449.5" y="432.14" font-size="13.11" fill="#9c5017" text-anchor="middle" font-weight="600">S5</text>
<rect x="484.5" y="415.0" width="54" height="26" rx="13.0" fill="#fdf0e4" stroke="#c96a24" stroke-width="1" />
<text x="511.5" y="432.14" font-size="13.11" fill="#9c5017" text-anchor="middle" font-weight="600">S8</text>
<path d="M 449.5 446 V 460" fill="none" stroke="#6b7684" stroke-width="1.6" stroke-linecap="round" stroke-linejoin="round" marker-end="url(#arrow)"/>
<rect x="344.5" y="464" width="210" height="30" rx="15" fill="#f7f9fa" stroke="#d5dbe1" stroke-width="1" />
<text x="449.5" y="484" font-size="13.68" fill="#1f2933" text-anchor="middle" font-weight="600">외부 TTS API 호출</text>
<text x="449.5" y="510" font-size="12.54" fill="#6b7684" text-anchor="middle" font-weight="400">→ 오디오 조각 3개 회신</text>
<path d="M 560 310 C 560 336, 738.5 320, 738.5 360" fill="none" stroke="#6b7684" stroke-width="1.6" stroke-linecap="round" stroke-linejoin="round" marker-end="url(#arrow)"/>
<rect x="602" y="366" width="273" height="154" rx="10" fill="#ffffff" stroke="#d5dbe1" stroke-width="1" />
<path d="M 602 400 V 376 a10,10 0 0 1 10,-10 H 865 a10,10 0 0 1 10,10 V 400 Z" fill="#3f8f5e"/>
<text x="738.5" y="389" font-size="14.25" fill="#ffffff" text-anchor="middle" font-weight="700">화자 C · voice_c</text>
<rect x="649.5" y="415.0" width="54" height="26" rx="13.0" fill="#e7f5ec" stroke="#3f8f5e" stroke-width="1" />
<text x="676.5" y="432.14" font-size="13.11" fill="#2c6a44" text-anchor="middle" font-weight="600">S4</text>
<rect x="711.5" y="415.0" width="54" height="26" rx="13.0" fill="#e7f5ec" stroke="#3f8f5e" stroke-width="1" />
<text x="738.5" y="432.14" font-size="13.11" fill="#2c6a44" text-anchor="middle" font-weight="600">S7</text>
<rect x="773.5" y="415.0" width="54" height="26" rx="13.0" fill="#e7f5ec" stroke="#3f8f5e" stroke-width="1" />
<text x="800.5" y="432.14" font-size="13.11" fill="#2c6a44" text-anchor="middle" font-weight="600">S10</text>
<path d="M 738.5 446 V 460" fill="none" stroke="#6b7684" stroke-width="1.6" stroke-linecap="round" stroke-linejoin="round" marker-end="url(#arrow)"/>
<rect x="633.5" y="464" width="210" height="30" rx="15" fill="#f7f9fa" stroke="#d5dbe1" stroke-width="1" />
<text x="738.5" y="484" font-size="13.68" fill="#1f2933" text-anchor="middle" font-weight="600">외부 TTS API 호출</text>
<text x="738.5" y="510" font-size="12.54" fill="#6b7684" text-anchor="middle" font-weight="400">→ 오디오 조각 3개 회신</text>
<path d="M 160.5 522 C 160.5 528, 368.94 522, 368.94 546" fill="none" stroke="#6b7684" stroke-width="1.6" stroke-linecap="round" stroke-linejoin="round" marker-end="url(#arrow)"/>
<path d="M 449.5 522 C 449.5 528, 449.86 522, 449.86 546" fill="none" stroke="#6b7684" stroke-width="1.6" stroke-linecap="round" stroke-linejoin="round" marker-end="url(#arrow)"/>
<path d="M 738.5 522 C 738.5 528, 530.78 522, 530.78 546" fill="none" stroke="#6b7684" stroke-width="1.6" stroke-linecap="round" stroke-linejoin="round" marker-end="url(#arrow)"/>
<rect x="280" y="552" width="340" height="52" rx="10" fill="#f7f9fa" stroke="#2f8f83" stroke-width="1" />
<text x="450" y="574" font-size="14.25" fill="#1f2933" text-anchor="middle" font-weight="700">세그먼트 오디오가 전부 모였나?</text>
<text x="450" y="592" font-size="12.54" fill="#6b7684" text-anchor="middle" font-weight="400">하나라도 빠지면 병합 불가</text>
<path d="M 626 586 H 656" fill="none" stroke="#6b7684" stroke-width="1.6" stroke-linecap="round" stroke-linejoin="round" stroke-dasharray="5 4" marker-end="url(#arrow)"/>
<text x="641" y="574" font-size="11.97" fill="#6b7684" text-anchor="middle" font-weight="400">일부 누락</text>
<rect x="664" y="552" width="212" height="52" rx="10" fill="#ffffff" stroke="#c96a24" stroke-width="1" />
<text x="770" y="574" font-size="13.68" fill="#9c5017" text-anchor="middle" font-weight="600">실패 세그먼트만 재요청</text>
<text x="770" y="592" font-size="12.54" fill="#6b7684" text-anchor="middle" font-weight="400">재시도 소진 시 FAILED</text>
<path d="M 450 610 V 638" fill="none" stroke="#6b7684" stroke-width="1.6" stroke-linecap="round" stroke-linejoin="round" marker-end="url(#arrow)"/>
<text x="462" y="630" font-size="12.54" fill="#6b7684" text-anchor="start" font-weight="400">전부 도착</text>
<rect x="24" y="648" width="852" height="60" rx="10" fill="#f7f9fa" stroke="#d5dbe1" stroke-width="1" />
<text x="40" y="672" font-size="14.82" fill="#1f2933" text-anchor="start" font-weight="700">④ 원래 대사 순서로 병합 → 최종 오디오 1개</text>
<clipPath id="bar"><rect x="420" y="672" width="440" height="24" rx="6"/></clipPath>
<g clip-path="url(#bar)">
<rect x="420.0" y="672" width="42.5" height="24" fill="#e8f0fe"/>
<rect x="420.0" y="672" width="42.5" height="24" fill="none" stroke="#3b6fd4" stroke-width="1"/>
<text x="441.25" y="688" font-size="10.83" fill="#2b56a8" text-anchor="middle" font-weight="600">S1</text>
<rect x="464.0" y="672" width="42.5" height="24" fill="#fdf0e4"/>
<rect x="464.0" y="672" width="42.5" height="24" fill="none" stroke="#c96a24" stroke-width="1"/>
<text x="485.25" y="688" font-size="10.83" fill="#9c5017" text-anchor="middle" font-weight="600">S2</text>
<rect x="508.0" y="672" width="42.5" height="24" fill="#e8f0fe"/>
<rect x="508.0" y="672" width="42.5" height="24" fill="none" stroke="#3b6fd4" stroke-width="1"/>
<text x="529.25" y="688" font-size="10.83" fill="#2b56a8" text-anchor="middle" font-weight="600">S3</text>
<rect x="552.0" y="672" width="42.5" height="24" fill="#e7f5ec"/>
<rect x="552.0" y="672" width="42.5" height="24" fill="none" stroke="#3f8f5e" stroke-width="1"/>
<text x="573.25" y="688" font-size="10.83" fill="#2c6a44" text-anchor="middle" font-weight="600">S4</text>
<rect x="596.0" y="672" width="42.5" height="24" fill="#fdf0e4"/>
<rect x="596.0" y="672" width="42.5" height="24" fill="none" stroke="#c96a24" stroke-width="1"/>
<text x="617.25" y="688" font-size="10.83" fill="#9c5017" text-anchor="middle" font-weight="600">S5</text>
<rect x="640.0" y="672" width="42.5" height="24" fill="#e8f0fe"/>
<rect x="640.0" y="672" width="42.5" height="24" fill="none" stroke="#3b6fd4" stroke-width="1"/>
<text x="661.25" y="688" font-size="10.83" fill="#2b56a8" text-anchor="middle" font-weight="600">S6</text>
<rect x="684.0" y="672" width="42.5" height="24" fill="#e7f5ec"/>
<rect x="684.0" y="672" width="42.5" height="24" fill="none" stroke="#3f8f5e" stroke-width="1"/>
<text x="705.25" y="688" font-size="10.83" fill="#2c6a44" text-anchor="middle" font-weight="600">S7</text>
<rect x="728.0" y="672" width="42.5" height="24" fill="#fdf0e4"/>
<rect x="728.0" y="672" width="42.5" height="24" fill="none" stroke="#c96a24" stroke-width="1"/>
<text x="749.25" y="688" font-size="10.83" fill="#9c5017" text-anchor="middle" font-weight="600">S8</text>
<rect x="772.0" y="672" width="42.5" height="24" fill="#e8f0fe"/>
<rect x="772.0" y="672" width="42.5" height="24" fill="none" stroke="#3b6fd4" stroke-width="1"/>
<text x="793.25" y="688" font-size="10.83" fill="#2b56a8" text-anchor="middle" font-weight="600">S9</text>
<rect x="816.0" y="672" width="42.5" height="24" fill="#e7f5ec"/>
<rect x="816.0" y="672" width="42.5" height="24" fill="none" stroke="#3f8f5e" stroke-width="1"/>
<text x="837.25" y="688" font-size="10.83" fill="#2c6a44" text-anchor="middle" font-weight="600">S10</text>
</g>
<text x="40" y="696" font-size="13.11" fill="#6b7684" text-anchor="start" font-weight="400">S1→S10 조각을 이어붙여 하나의 대화 오디오로 만든다</text>
</svg>
